# xmcd
#
# Track frame offsets:
# 150
# 13230
# 29135
# 41290
# 57302
# 74697
# 91237
# 102215
# 117787
# 138382
# 158600
# 174365
# 191592
# 209640
# 223755
# 239047
# 253550
# 269827
# 280272
# 291197
# 304950
#
# Disc length: 4238 seconds
#
#
# Revision: 2
# Processed by: cddbd v1.5.1PL2 Copyright (c) Steve Scherf et al.
# Submitted via: FreeRIP 2.944 
#
DISCID=4c108c15
DTITLE=Waldemar Matuska - Nebeskej kovboj
DYEAR=1900
DGENRE=
TTITLE0=Nebeskej kovboj
TTITLE1=Arie mesice
TTITLE2=Bud porad se mnou
TTITLE3=Pisnicka pro Zuzanu
TTITLE4=Jo, tresne zraly
TTITLE5=Divoky kone
TTITLE6=Tereza
TTITLE7=Mrholi
TTITLE8=Ach, ta laska nebeska
TTITLE9=Slany dest
TTITLE10=Mam maly stan
TTITLE11=Tam za vodou v rakosi
TTITLE12=Ruze z Texasu
TTITLE13=Pada hvezda
TTITLE14=Rudy pav
TTITLE15=Couva mesic
TTITLE16=Co z toho mam
TTITLE17=Bile banjo
TTITLE18=Tam, kde konci modrinovej les
TTITLE19=V udoli skrehotavych vran
TTITLE20=Supi
EXTD=
EXTT0=
EXTT1=
EXTT2=
EXTT3=
EXTT4=
EXTT5=
EXTT6=
EXTT7=
EXTT8=
EXTT9=
EXTT10=
EXTT11=
EXTT12=
EXTT13=
EXTT14=
EXTT15=
EXTT16=
EXTT17=
EXTT18=
EXTT19=
EXTT20=
PLAYORDER=
